<mxfile host="app.diagrams.net" agent="Mozilla/5.0 (Macintosh; Intel Mac OS X 10_15_7) AppleWebKit/537.36 (KHTML, like Gecko) Chrome/130.0.0.0 Safari/537.36" version="24.8.3">
  <diagram name="Page-1" id="pwTMYBMfuxWdj1j0Eu_B">
    <mxGraphModel dx="724" dy="1624" grid="1" gridSize="10" guides="1" tooltips="1" connect="1" arrows="1" fold="1" page="1" pageScale="1" pageWidth="850" pageHeight="1100" math="0" shadow="0">
      <root>
        <mxCell id="0" />
        <mxCell id="1" parent="0" />
        <mxCell id="cnEfcKHh1g_J3iN1mnnI-72" value="" style="rounded=1;whiteSpace=wrap;html=1;sketch=1;curveFitting=1;jiggle=2;dashed=1;dashPattern=12 12;strokeWidth=1;fillColor=default;fontFamily=Architects Daughter;fontSource=https%3A%2F%2Ffonts.googleapis.com%2Fcss%3Ffamily%3DArchitects%2BDaughter;" parent="1" vertex="1">
          <mxGeometry x="250" y="720" width="240" height="71" as="geometry" />
        </mxCell>
        <mxCell id="cnEfcKHh1g_J3iN1mnnI-52" value="" style="rounded=1;whiteSpace=wrap;html=1;sketch=1;curveFitting=1;jiggle=2;dashed=1;dashPattern=12 12;strokeWidth=1;fillColor=default;fontFamily=Architects Daughter;fontSource=https%3A%2F%2Ffonts.googleapis.com%2Fcss%3Ffamily%3DArchitects%2BDaughter;" parent="1" vertex="1">
          <mxGeometry x="399.66" y="831" width="365" height="190" as="geometry" />
        </mxCell>
        <mxCell id="cnEfcKHh1g_J3iN1mnnI-11" value="" style="rounded=1;whiteSpace=wrap;html=1;sketch=1;curveFitting=1;jiggle=2;dashed=1;dashPattern=12 12;strokeWidth=1;fillColor=default;fontFamily=Architects Daughter;fontSource=https%3A%2F%2Ffonts.googleapis.com%2Fcss%3Ffamily%3DArchitects%2BDaughter;" parent="1" vertex="1">
          <mxGeometry x="560" y="210" width="200" height="190" as="geometry" />
        </mxCell>
        <mxCell id="cnEfcKHh1g_J3iN1mnnI-10" value="" style="rounded=1;whiteSpace=wrap;html=1;sketch=1;curveFitting=1;jiggle=2;dashed=1;dashPattern=12 12;strokeWidth=1;fillColor=default;shadow=0;fontFamily=Architects Daughter;fontSource=https%3A%2F%2Ffonts.googleapis.com%2Fcss%3Ffamily%3DArchitects%2BDaughter;" parent="1" vertex="1">
          <mxGeometry x="260" y="210" width="200" height="190" as="geometry" />
        </mxCell>
        <mxCell id="cnEfcKHh1g_J3iN1mnnI-9" style="rounded=0;orthogonalLoop=1;jettySize=auto;html=1;exitX=0.92;exitY=0.5;exitDx=0;exitDy=0;exitPerimeter=0;entryX=0;entryY=0.5;entryDx=0;entryDy=0;sketch=1;curveFitting=1;jiggle=2;fontFamily=Architects Daughter;fontSource=https%3A%2F%2Ffonts.googleapis.com%2Fcss%3Ffamily%3DArchitects%2BDaughter;" parent="1" source="cnEfcKHh1g_J3iN1mnnI-1" target="cnEfcKHh1g_J3iN1mnnI-8" edge="1">
          <mxGeometry relative="1" as="geometry" />
        </mxCell>
        <mxCell id="cnEfcKHh1g_J3iN1mnnI-1" value="" style="sketch=0;aspect=fixed;pointerEvents=1;shadow=0;dashed=0;html=1;strokeColor=none;labelPosition=center;verticalLabelPosition=bottom;verticalAlign=top;align=center;fillColor=#00188D;shape=mxgraph.azure.laptop;fontFamily=Architects Daughter;fontSource=https%3A%2F%2Ffonts.googleapis.com%2Fcss%3Ffamily%3DArchitects%2BDaughter;" parent="1" vertex="1">
          <mxGeometry x="118.34" y="235" width="83.33" height="50" as="geometry" />
        </mxCell>
        <mxCell id="cnEfcKHh1g_J3iN1mnnI-3" value="user" style="text;html=1;align=center;verticalAlign=middle;resizable=0;points=[];autosize=1;strokeColor=none;fillColor=none;fontFamily=Architects Daughter;fontSource=https%3A%2F%2Ffonts.googleapis.com%2Fcss%3Ffamily%3DArchitects%2BDaughter;" parent="1" vertex="1">
          <mxGeometry x="135" y="288" width="50" height="30" as="geometry" />
        </mxCell>
        <mxCell id="cnEfcKHh1g_J3iN1mnnI-5" value="" style="shape=image;verticalLabelPosition=bottom;labelBackgroundColor=default;verticalAlign=top;aspect=fixed;imageAspect=0;image=data:image/png,iVBORw0KGgoAAAANSUhEUgAAA2oAAAEFCAYAAACSFhStAAAAAXNSR0IArs4c6QAAAERlWElmTU0AKgAAAAgAAYdpAAQAAAABAAAAGgAAAAAAA6ABAAMAAAABAAEAAKACAAQAAAABAAADaqADAAQAAAABAAABBQAAAADrF3btAABAAElEQVR4Ae2dW6wtR5nfe619OXvjA+NA0Ph+4ltiCeLAwCDCA56RjmVhLIQtoQOPBAYNSRRZjOKHSLZleBqPMpFIiNHAJNI8hFiWbMvD2CPZUrAfGMSAcAxIJxjbc47BxyOY2BCbvc++rJX6au9ap9fa3b2669Jd1f1b1vFeq7ur6vt+Vd1d/7qObrnztowPBCAAAQhAAAIQgAAEIAABCMRDYByPKVgCAQhAAAIQgAAEIAABCEAAAkIAoUY5gAAEIAABCEAAAhCAAAQgEBkBhFpkGYI5EIAABCAAAQhAAAIQgAAEEGqUAQhAAAIQgAAEIAABCEAAApERWI3MHsyBAAQgAAEIQAACgyfw0LXnrjQQVrff+Kz5vuzv3sbxr5trPvHCpS+b7/yFAATSIzBi1cf0Mg2LIQABCEAAAhBIn4CIsZXpzrtH53c+ON3avie0R6PNjS9Oj61/Z3+0/iNEXGjaxA8BdwIINXeGxAABCEAAAhCAAASWEnj4mjMfGW9vfWGyvXty6cUtXWDE2x0vnniipSRJBgIQqEkAoVYTFJdBAAIQgAAEIACBJgRiFGbL7Ee4LSPEeQi0RwCh1h5rUoIABCAAAQhAoOcEUhRnZVky3lh7arKx+af0tpUR4jgEwhJAqIXlS+wQgAAEIAABCPScQJ/EWVlWiWjb3fytf8XctjJCHIeAfwIINf9MiRECEIAABCAAgQEQeOTy5+9rYxGQ2FDK8Mjbf379vbHZhT0Q6BsBhFrfchR/IAABCEAAAhAISuDRy04/GdOCIEGdrYhcetk+/soNN1dcwikIQMCBAPuoOcAjKAQgAAEIQAACwyCgl9J/7ZdnxdvJ9jB8XualiNWH3/7DKYJtGSnOQ8COAELNjhuhIAABCEAAAhAYAIGZQHttAM5auohgswRHMAgsITBecp7TEIAABCAAAQhAYJAEZIjjymEv2iABNHTaCDbh1jAol0MAAgUEEGoFUDgEAQhAAAIQgMBwCcgiITKkj3lodmXACDbhaBcDoSAAASHAYiKUAwhAAAIQgAAEIKAIyDL72eu/fhwYfgns/6N/fBXL+vtlSmzDIECP2jDyGS8hAAEIQAACEKggoIfrIdIqCNmfkuGjDIe050fI4RJgMZHh5j2eQwACEIAABAZPwCwWwkqOYYuCGQ6ZXfy2W+948cQTYVMjdgj0gwA9av3IR7yAAAQgAAEIQKAhARYLaQjMx+Wq15K5az5AEscQCCDUhpDL+AgBCEAAAhCAwBwBFguZw9Hqj+nW9j3Cv9VESQwCCRJAqCWYaZgMAQhAAAIQgIAdAVkwBJFgx853KMkHvYCL74iJDwI9IYBQ60lG4gYEIAABCEAAAtUEWDCkmk8nZxkK2Ql2Ek2DAEItjXzCSghAAAIQgAAEHAgw1NEBXuCgMhSSVSEDQyb6JAkg1JLMNoyGAAQgAAEIQKAuAYY61iXV3XWzVSG7M4GUIRAdAYRadFmCQRCAAAQgAAEI+CKASPNFsp14yK92OJNKGgQQamnkE1ZCAAIQgAAEINCQAJX+hsAiuZx8iyQjMKNzAgi1zrMAAyAAAQhAAAIQ8EmAlR190uwmLsRaN9xJNS4CCLW48gNrIAABCEAAAhBwIKCXe1crCTpEQdBICCDWIskIzOiMAEKtM/QkDAEIQAACEICAdwKINO9Iu4wQsdYlfdLumgBCrescIH0IQAACEIAABLwQoFLvBWN0kZCv0WUJBrVEAKHWEmiSgQAEIAABCEAgHAEq8+HYxhAz+RtDLmBD2wQQam0TJz0IQAACEIAABLwSoBLvFWe0kZHP0WYNhgUigFALBJZoIQABCEAAAhAIT4DKe3jGMaXw6GWnn4zJHmyBQEgCCLWQdIkbAhCAAAQgAIFgBKi0B0MbbcST7d2Tj1z+/H3RGohhEPBIAKHmESZRQQACEIAABCDQDgGprEulvZ3USCUmAtOt7Xv0NgwxGYUtEAhAAKEWACpRQgACEIAABCAQloBU1sOmQOxRE2AbhqizB+P8EECo+eFILBCAAAQgAAEItESAeWktgY48GcpB5BmEec4EEGrOCIkAAhCAAAQgAIG2CDAvrS3SaaTDfLU08gkr7Qgg1Oy4EQoCEIAABCAAgZYJPHTtuSuZl9Yy9MiTkyGwUi4iNxPzIGBFAKFmhY1AEIAABCAAAQi0TWDltV+ebTtN0oufAOUi/jzCQjsCCDU7boSCAAQgAAEIQKBFAgx5bBF2gkkxBDLBTMPkpQQQaksRcQEEIAABCEAAAl0SYMhjl/TTSJshkGnkE1Y2I4BQa8aLqyEAAQhAAAIQaJkAQ9taBp5ocpSTRDMOs0sJINRK0XACAhCAAAQgAIGuCTCkrescSCt9ykta+YW11QQQatV8OAsBCEAAAhCAQIcE2Ni6Q/gJJk15STDTMLmUAEKtFA0nIAABCEAAAhDokgALiHRJP920KTfp5h2WzxNAqM3z4BcEIAABCEAAAhEQYAGRCDIhURPYay/RjMPsIwQQakeQcAACEIAABCAAga4JsDBE1zmQdvr0qqWdf1h/QAChRkmAAAQgAAEIQCAqAtKbFpVBGJMcAXrVkssyDC4ggFArgMIhCEAAAhCAAAS6I0BvWnfs+5QyvWp9ys1h+oJQG2a+4zUEIAABCEAAAhDoNQF61XqdvYNwbnUQXuIkBCAAAQhAAAK1CTx8zZmPjM7vfLBqqfPxxtpTUhGWv9PRyrenx9a/c8eLJ56onUjJhdILMtkuOclhCDQkIPuq3f7z6+9tGIzLIRAFgdEtd94WhSEYAQEIQAACEIBANwSkMlslyppaZcSbTQX54bf/cNo0Pa6HQBWBO/7vPx9VneccBGIlgFCLNWewCwIQgAAEIBCQgPSaZa//+vGASVyI+uK33Vqnt823YLxgAN8GTaBm+Rs0I5yPkgBz1KLMFoyCAAQgAAEIhCEgYkj3WrUl0sQNlZakKWlXeeWzV68qHc4NjECbZX1gaHE3LAGEWli+xA4BCEAAAhCIgoARaF2KIUm7TLDpHr4oSGEEBCAAgTgIINTiyAesgAAEIAABCAQhIAJIxFGXAm3RMSPY8uJsvL31hcXr+A0BXwRYqt8XSeJpkwBCrU3apAUBCEAAAhBokUDrQxyb+qaGpJkKNEupN4XH9U0IUL6a0OLaWAgg1GLJCeyAAAQgAAEIeCLw0LXnrtQizVN8IaORCnQqtobkQNzhCeR7cMOnRgoQcCeAUHNnSAwQgAAEIACBaAjIXLSV1355NhqDMAQCkRBgeG0kGYEZtQmw4XVtVFwIAQhAAAIQiJuA3ix6a/dk3FZiHQS6IcDwx264k6o9AXrU7NkREgIQgAAEIBANAS3S1DDCaAzCEAhESECGBUdoFiZBoJAAQq0QCwchAAEIQAAC6RBApKWTV1jaLYHV7Tc+260FpA6B+gQQavVZcSUEIAABCEAgOgKItOiyBIMiJhDTNhURY8K0SAgg1CLJCMyAAAQgAAEINCUgq9gx76YpNa6HAAQgkAYBhFoa+YSVEIAABCAAgaME1D5kRw9yBAIQqCLAMv1VdDgXEwGEWky5gS0QgAAEIACBmgTYe6wmKC6DwAKB0fmdDy4c4icEoiSAUIsyWzAKAhCAAAQgUE5A9korP8sZCECgigDz1KrocC4mAgi1mHIDWyAAAQhAAAJLCMjy4lQ0l0DiNARKCExePZut/c7N2V//p7+cPvGlr01KLuMwBKIgwIbXUWQDRkAAAhCAAATqEVh57Zdn613JVRCAQBGB0W//rj48On7JSASb/Ph//+X9V33ihUtfLrqeYxDoigBCrSvypAsBCEAAAhBoSEAvgvB6w0BcDgEIzBFYff/n5n7Lj7f+2++d/Wv19zf/+cZbq+awTY+tf2d/tP4jCYOwEwp8QhJAqIWkS9wQgAAEIAABnwRY5dEnTeIaGAEZ9njs1s+Uer33vT/L1t4xeXy0eWnpNfkT37z8jfzPbO+nP3tqOlr59t7G8a8j4ubQ8MOSwOiWO2+zDEowCEAAAhCAAATaInDQm8Zy/G3xJp3+ERChdvwr5dPS9h75/Wy69YtstPlOb86LeJtsbP7pHS+eeMJbpEQ0GAL0qA0mq3EUAhCAAASSJkBvWtLZh/HdExhfclWlEfvnXslWLr2s8pqmJ1evu+KkCnPym1cc9L7tvnDui7f//Pp7m8bD9cMkwKqPw8x3vIYABCAAAQhAAAKDISC9aesf+Q+l/sqwx/HFa6XnfZ1Yu/bSe7754Tem8o9tNnxR7W88CLX+5i2eQQACEIBATwhQoetJRuJGpwSKFhExBk3//m/N19b+5kWbHtrcWsoklAoBhFoqOYWdEIAABCAwWALsmzbYrMdxDwSkN23j5E2VMU3OPON1blplYgUn1694x+P0shWAGfghhNrACwDuQwACEIAABCAAgb4TWLn5G3q/tCI/p2+8Wnqu6PqQx0wv26OXnX4yZDrEnQYBhFoa+YSVEIAABCAwUAIMexxoxuO2VwKyuXVZhPunHxu1MT+tLP2i47IICT1sRWSGdQyhNqz8xlsIQAACEEiMwGi6/6HETMZcCERDYNneaWLo9Cdf7nTYYxUs08NGg00Vpf6eQ6j1N2/xDAIQgAAEekBgsr0ry3vzgQAELAmsffRrlSEnr+9Wno/hpBFsD1177soY7MGGdggg1NrhTCoQgAAEIAABCEAAAi0SkN60tXddX5liW8vyVxrR4OTm5W89S+9aA2CJX4pQSzwDMR8CEIAABPpLgNbz/uYtnrVDYOUDf1SZUBfL8lcaVOOk6V2rcSmXJE4AoZZ4BmI+BCAAAQj0l8DKdOfd/fUOzyAQnkDV3mmSetfL8rsQYLERF3pphEWopZFPWAkBCEAAAgMkMDq/88EBuo3LEHAmUGsRkYiW5bd1mN41W3JphEOopZFPWAkBCEAAAhCAAAQg0IDAskVE9p6+O7pl+Ru4N3ep9K7NHeBHLwgg1HqRjTgBAQhAAAIQgAAEINCIwK/+Jtpl+Rv5cXixiLWHrznzEZuwhImTAEItznzBKghAAAIQgAAEIAABCwIy7HHj019dGjKFZfmXOrFwwfoV73gcsbYAJeGfCLWEMw/TIQABCEAAAhCAAASOEli2iEhqy/If9bD8iIi1Ry87/WT5FZxJhQBCLZWcwk4IQAACEIAABCAAgUoCdRYRkQhSXJa/0vGFk6vXXXESsbYAJcGfCLUEMw2TIQABCEAAAhCAAASKCSxbRERCpbwsf7HXR48i1o4ySe0IQi21HMNeCEAAAhCAAAQgAIEjBKQ3be1d1x85vnhg2oNl+Rd9KvuNWCsjk8ZxhFoa+YSVEIAABCAwQAJ7G8e/PkC3cRkC1gSO/ev/Yx22rwFFrD1y+fP39dW/PvuFUOtz7uIbBCAAAQgkTeATL1z6ctIOYDwEWiJQd26amLN/+rHe7J9WF69sjM1qkHVpxXMdQi2evMASCEAAAhCAAAQgAAFLAnXmpllG3YtgshrkQ9eeu7IXzgzECYTaQDIaNyEAAQhAIE0C4421p9K0HKsh0A4B6U276I9fmdZO7eVv1L60bxduXv7Ws33zqc/+rPbZOXyDAAQgAAEIpEbAtHivbr/xWW17/epnaq5iLwScCYhI2zh5UzY6fsmobmTT9euybOsXdS/v3XXf/PAb09ueOV6bV+8AJOQQQi2hzMJUCEAAAhDoFwGZ4D+a7n9osr17cubZawffjD4zf2fn+QIBCMwRWL39f839XvZjtPPTbOj3leyx9vFXbrh5GSvOd0sAodYtf1KHAAQgAIEBEVgUZtMttfHugPzHVQj4IiA9afI5/pVJ8yiv/FSW/eTLzcP1KISsBPnwxpmP3PHiiSd65FbvXEGo9S5LcQgCEIAABGIiIOJsurV9j9iEMIspZ7AldQIbn/5q6i50ar8sLpK9mDEEstNcqE6cxUSq+XAWAhCAAAQg0JiAzDOToUUPv/2HUyPSGkdCAAhAoJCAnpemRNrq+z9XeH7ZwZUbPjadvL677LJBnJf5aoNwNFEnEWqJZhxmQwACEIBAfARknyIRZyuv/fLs3Lyz+EzFIggkSUBE2rFbP2Mt0sTpJguPJAmpodHsr9YQWIuXM/SxRdgkBQEIQAAC/SSgKzqv//rx7PV++odXEIiBgBFpPvZLG1+8FoNLUdjAEMgosqHQCHrUCrFwEAIQgAAEIFCPgPSgZSLS+EAAAsEImOGOPkSaGDn6p/9OzRkd7hL9ixklQ7UXj/G7ewIIte7zAAsgAAEIQCBBArJIiBZpCdqOyRBIhYAINCPSbOekFfkqcTFP7QIZWQXS7OF44SjfuibA0Meuc4D0IQABCEAgKQJSmZE5aLKCIx8IQCAcARFo8rnoj1+ZhphXtnLpZbpXbbT5znBOJBTz5uVvPZu9wCqQMWUZPWox5Qa2QAACEIBA1ASkF01EWtRGYhwEekBARNr4kqv0PmkhRJogko2y6VWbLywsLDLPo+tfCLWuc4D0IQABCEAgCQIstZ9ENmFk4gTMUEdZ2fEtd/9dcG9WPvBHzFXLUdYLi+R+87VbAgi1bvmTOgQgAAEIJECAuWgJZBImJk8gP9TR16Ihy6DoeW+/9S8RazlQ9KrlYHT8FaHWcQaQPAQgAAEIxEtAKiyItHjzB8v6QcD0om2oTayPf2XS+j5nIgplnhqrQB6UJ3rV4rmvEGrx5AWWQAACEIBARARme6NFZBOmQKBPBIxAk2GOItB8rurYlJPMV0OsXaDGCpAXWHT5DaHWJX3ShgAEIACBKAkg0qLMFozqCYFFgdbWMMdl+LRYU/ur7Z97ZfC9a2tbv/pvy3hxPjwBlucPz5gUIAABCEAgIQKItIQyC1OTIWDmn4nBMsSxy96zKmhi18oNH5vuPX33aP/MM9n44jXd01YVpo/nZF+17JU+epaWT6Nb7rwtLYuxFgIQgAAEIBCIACItEFiiHRyBvDAT52V44+pNXwqyH1oouNM3XtWCbaIEm3yGJtp2Xzj3xdt/fv29ofgS73ICCLXljLgCAhCAAAQGQoCFQwaS0R25KeJF9gYzf8UM8938rXOsI/NrJ7v2ruuz8YkPZ6Pf/t1oe85qO3N4oRFt8tMIt8U4RMiVfVLdVPu2Z46PynzieHgCCLXwjEkBAhCAAAQSIIBI859JVeJDzg3pI+LF12fl0suy7MpP+YpOD/VzjSzUptSudoUML+ItH//+6cfmRM307/82fzrLfvU3SzfYLhN7XQm9nZ/9w613vHjiiXlH+NUWAYRaW6RJBwIQgAAEoiWASPOTNUZ81RElvsWGeCBzi/x4krW+RLwvu4knLQJ1xd5o56d6kZO2h1/u/fRnT338lRtuTotqf6xlMZH+5CWeQAACEICABYFHLn/+vumWRUCCzBEwvWdvufvv5o63/GOuR6PltEkOAo0JLPZEHl1k5XOzOFdUD97OX9w0WtmcHQr+hUVFgiOuTIDl+SvxcBICEIAABPpMQBYPmW5t39NnH9v0rWOR1qarpAWB1gmIqNM90a2nTIJdEUCodUWedCEAAQhAoHsCr//68e6N6IcFdYY79sNTvIDAsAjIqINheRyPtwi1ePICSyAAAQhAoEUCj152+skWk+t9Uvv/cL73PuIgBLomIJtxt/1Zu/ZSRh20Df0wPYRaR+BJFgIQgAAEuiPw0LXnrpxs757szoL+pSxz1Hb/6g/65xgeQSACAnvf+7Ns93+8W+/lFoE5mNASAVZ9bAk0yUAAAhCAQDwEWOUxTF6YVR9dYpd9xlbeccwlillY3ytL+lxVUoxcXEhiZjhfekVg2cqO2tmXv5FN16/TX80Kj3kIba/2mE9bvrNM/yKRdn6z6mM7nEkFAhCAAAQiIcAqj+EyQkSWj8/uj5/XG0ObuMyKkk1/7/74aRVE/vn6/GG0q0r6FLhCy2xYXZeciNi+C08RXJZ7pc2Vm7K90rKtXxzg3nyn7jnrau+0ojwfnd/5oDrOfmpFcAIeo0ctIFyihgAEIACB+AjQmxZfnmCRHwK2gtakbsK79oxunLxJb8h9dKl5k1L8f40ok02rJ2eemRlcKrIOr4hJXM2M9vTltmeOzwlOT9ESTQUBhFoFHE5BAAIQgEC/CBz0prEcf79yFW9iJGDE3rFbP5OtffRrMZp4xCYRZ3tP3z0ywsyIsj6LryMQKg4g1CrgBDrF0MdAYIkWAhCAAATiI8CeafHlCRb1k4AZBnv+8T/P5N/Gp7+axdrDJgt1TH/y5Wzy+u5IxBl7lfWzTKboFas+pphr2AwBCEAAAo0JyObWjQMRAAIQcCIggk3+bf/3P8x+86V/4hSX78Ai0M7/13+mRZrELQKN3rNyyrJabvlZzoQggFALQZU4IQABCEAgPgJsbh1fnmDRYAiIWJPhkG/8m+6rnnmBZsQZAm15UVzdfuOzy6/iCp8Eur9bfHpDXBCAAAQgAAEIQAACURIwwyG7EmsyB032IpNhjjLEEXEWZTHBqBwBhFoOBl8hAAEIQKCfBB697PST/fQMryCQFgEzFLJtsSa9aDt/cZNetVAEGiKtebkZTfc/1DwUIVwIINRc6BEWAhCAAASSIDDZ3j2ZhKEYCYEBEdh75PeDe5vvRTPDHIMn2tMEVq+7gudoy3mLUGsZOMlBAAIQgEC7BFhEpF3epAaBOgT0AiNPPZ2JkKpzvc01i71oNnEQBgJdEkCodUmftCEAAQhAIDiB8fbWF4InQgIQgIAVATMc0SpwRSARafvf/Y+s5FjBiFPxE2AftfjzCAshAAEIQMCBAMMeHeARFAIBCUiv2u6Pn8+OeU5DhlROt37BfmieuRJd+wToUWufOSlCAAIQgAAEIAABCBwS2P2rP/DGwog0FgvxhpSIOiSAUOsQPklDAAIQgEBYAsxPC8uX2CHgSkB61c4//ueu0ejwiDQvGIkkIgIItYgyA1MgAAEIQMAvAean+eVJbBCIlQAiLdacwS4XAgg1F3qEhQAEIACBqAkwPy3q7ME4CMwIuKz+iEibYeRLzwgg1HqWobgDAQhAAAIQgAAEUiOwf/oxvRl1U7tlfpssHMKctKbkuD4FAgi1FHIJGyEAAQhAAAIQgAAE5gjIEvyTM88g0uao8KNPBBBqfcpNfIEABCAAgRmBh649d+XsB18gAIFeEZChkmaftF45hjMQyBFAqOVg8BUCEIAABPpDYHX7jc/2xxs8gQAE8gRko+zxxWv5Q3yHQO8IINR6l6U4BAEIQAACEIAABPpLQOaliUhjXlp/8xjPDggg1CgJEIAABCAAAQhAAAJJEJAhj8xLSyKrMNIDAYSaB4hEAQEIQAAC8RGYbm3fE59VWAQBCLgQ2HvsJEMeXQA6hN376c+ecghOUAsCCDULaASBAAQgAAEIQAACEPBHYOWGj02XxSarPMqHIY/LSIU5Px2tfDtMzMRaRgChVkaG4xCAAAQgkDSB8cYarb9J5yDGD4nA6PglS/dRm/7ky0NCEp2v02Pr34nOqJ4bhFDreQbjHgQgAIGhEphs754cqu/4DYGUCIwvuWqpufSmLUUU/IL90fqPgidCAnMEEGpzOPgBAQhAAAIQgAAEINAWgcmrZ7O137l5aXL0pi1FFPyCT7xw6cvBEyGBOQIItTkc/IAABCAAAQhAAAIQaJPA6k1fqpyfpld6fH2XuWltZgppRUEAoRZFNmAEBCAAAQj4JsAcNd9EiQ8CYQgsm5+29/TdrPQYBj2xRk4AoRZ5BmEeBCAAAQjYEWCFMjtuhIJAWwRk2OPGyZuWJse+aUsRBb9g94VzXwyeCAkcIYBQO4KEAxCAAAQgAAEIQAACrRC48lOVycgiIuOL1yqv4WR4Ansbx78ePhVSWCSAUFskwm8IQAACEOgFAZaS7kU24kTPCay+/3OVHsoiIuybVomolZMsJNIK5iOJINSOIOEABCAAAQj0gQBLSfchF/GhzwTqLMs/UYuI8IHAUAkg1Iaa8/gNAQhAoOcEaAHueQbjXtIE6izLb/ZOS9rRHhjP/LTuMhGh1h17UoYABCAAgdAELn7braGTIH4IQKA5gY1PfzVb++jXKgPKsMiVSy+rvIaT4Qnc/vPr7w2fCikUERjdcudtRcc5BgEIQAACEIAABCAAAQhAAAIdEaBHrSPwJAsBCEAAAhCAAAQgAAEIQKCMAEKtjAzHIQABCEAAAhCAAAQgAAEIdEQAodYReJKFAAQgAAEIQAACEIAABCBQRgChVkaG4xCAAAQgAAEIQAACEIAABDoigFDrCDzJQgACEIAABCAAAQhAAAIQKCOAUCsjw3EIQAACEIAABCAAAQhAAAIdEUCodQSeZCEAAQhAAAIQgAAEIAABCJQRQKiVkeE4BCAAAQhAAAIQgAAEIACBjggg1DoCT7IQgAAEIAABCEAAAhCAAATKCCDUyshwHAIQgAAEIAABCEAAAhCAQEcEEGodgSdZCEAAAhCAAAQgAAEIQAACZQQQamVkOA4BCEAAAhCAAAQgAAEIQKAjAgi1jsCTLAQgAAEIQAACEIAABCAAgTICCLUyMhyHAAQgAAEIQAACEIAABCDQEQGEWkfgSRYCEIAABCAAAQhAAAIQgEAZAYRaGRmOQwACEIAABCAAAQhAAAIQ6IgAQq0j8CQLAQhAAAIQgAAEIAABCECgjABCrYwMxyEAAQhAAAIQgAAEIAABCHREAKHWEXiShQAEIAABCEAAAhCAAAQgUEYAoVZGhuMQgAAEIAABCEAAAhCAAAQ6IoBQ6wg8yUIAAhCAAAQgAAEIQAACECgjgFArI8NxCEAAAhCAAAQgAAEIQAACHRFAqHUEnmQhAAEIQAACEIAABCAAAQiUEUColZHhOAQgAAEIQAACEIAABCAAgY4IrHaULsk2JPDm6fNXFQW56IZjZ4uOc2xYBCgfw8pvvIUABCAAAQhAoP8EEGoR5vHO/97699kk+3y2kl0t5k0nk6wso84/u5eNxqpjdD97KRtl31X/vr/+Lzb/JEK3tEllgqKuvQjTLOtz+TDlILZy4mqP+BWy7Pqwz7DP/w1pcz6dtr+H4hXSjxB54cohhE0hGYaMW1iunZ+cskpjmr1v/T2bn7QK21Eg17LTxOwUy1mbfJqwrLo2Rc5V/vTl3OiWO2/riy/J+qEf8NuT+yfjyalxdmE0qgg0LcJqeDZRyi4fVgeZZA/G9PAXP1e3987UcKfwklE2jsqfQiMDHBxK+cijO//sm9P876bfj73nolHTMFXXiz1TdWuOJlVXlZ8LXXZdeZVbrhqKlN/m2aKfM/vjl/T14+yB3WPjB1N7ubs+h6pYhTznu0yLrS7lWt5Nu+vjE6nlf6g8Ov/cm79RD61NuVfy7+Nl3+W8elhtjabje2NuZM1z23l2639OM0tRmo+owfd8XUilvTXaH7+qUEf5DErxGePrftb1lVyDRSplukFRbP3Sso6a1g0ZYoK6Z2SU3b+qBJnUSk1lyLDIP5jMsbK/i2H1y2E8PqVexKd0PNPsrlhumCZ+GX/1y2yafd/8HsJfKR/T6eR+uUmHVD4kb23KSMgyoSpRL6nK1NXqJm38aaPshuR1RPGqnn7t00Q9u1QD085zh+pVNQztbozvSqXiHpJZ40LSUQCXci0NifLW4nNAwIg0+ZV/Hy/7fnh+U4+iybJoR8PM5bMauTMdZXMNy3PnA/9QDV+b09HkamXD/DMoonqOIEjpGeN6PxtxauorpoFv57mt+2XE1/p7N68JXCx6Gz1P2Q6yVirgqvBO1YPmPklebmbfN7R5OUi80vokaUmacjN14LJzksYf54gSiMCUD9XMer8pG5SPBDKuxMQ+lV3ji/w1ZVPcFuGmDp1a25mckV4aaXEvwcFhCPSOgI/yPlmZXN07MAEdkuePeQ4diAzVoKkaNqWe4yM/Apreu6ilziLPfmn4kZ5/+bdx40Wj9Rs3R6oCepeIasmX3jnekkMItZZASzIikrRAUw8T+S2tQvI39EfSMWnJzbTzg60XQ6fpO35dEfQdaWTxSfnQQ9iUQGvTtD6UjzZ5NU1rCGXXCDhhIxUoGca9/ZwSbOpZk2rjUNN85voBE1CNFD68R2DYUTQNmeavNBrp54/M9+cTnoCqs0iHgPSaSR1G/gl/+SeJi3ATMU35tssKhJodt8ahpMVB5mdJYZ09TBrH4imAGrok4+nFJk8xBo8mXxEMnlgHCcgDzGX+nleTEywfXv33HFnfy24RLvFZ+63K0srOXpKNQ0V+cQwCiwTMe9T1PtfzXz0JvkUbh/rb9LAN1f82/Ja6i9Rrj9140VtMeqPR+K7xVP2bjB+UPJDGOtUg/KAIaHMNf+sTQKjVZ2V9pbQqSGHVixGo1uYYPtKLoodDJjJEqc+9Erp8qInZlI8Y7gz/NvS57NahZQSbHpKUUONQHd+4BgIyRN0HBdOAa4SfjziHHIc8d4SpiAg9UmXIMAL6LqMnZMijJGFGT8h6CPqfWslU8kBWQ5WF7eRdSPlunhlxqIbmdicTQh4Q5oHh2uLm22k9HFK1cKQwdjg2dr7ygvLhi2S88fS17FoRV5XaFIdeW/lKoN4TkIqpCAGvH0/Cz6tNCUemxZqq6ZpheAm7EqXphz3BD+SNk2e8/nc4L80sZMe7ME+p/neEWn1Wja/U89ESISxDIRs72GKAPvZKUD5aLEAdJtXHsuuE83BorVMcBIZABATWtibfCmGG6ZkIEfcQ4zQCAbHmP/dlJJBaMOR9pTGrxURKz3GiFoFEZEQtX6K6SHpKpIJmHhBRGVdgjPSuxdyzlgrHArSFhygfhVh6ebBvZddLJk2yTbkHvMRFJBDoioBqdNAVVc/phxKAns1MKjp5Dst/9Oj7zbax2lfT7KlntmaRRUVmy/FPss9LiqbxwfSu+bWi37Eh1ALkr/ROSXe7/JfSR4ZwxLoqT596JUzvJeUjpbvD3tY+lV17CvMhzXAkxNo8F36lQ0DelcEaY5UATIdEYpYqtkY0JGZ5lObubo5/TwzLzz2b8VV7a8q2E/JbVhznXSikmn/SUhLN/Ws9hG6tUa3FrSfsIUGpPClteSp/w3mI1ksUqYmaMqdN+dCsyy6K9HjM5SNSZNqsvpRd34yFi5SpmHvyfftMfD0iEHgFu1gbTfuQg9GssNwDmNKLJouJ6BU21WJRshT/rGdNLSAi+6lJD7F0BMj3HrjcugsINY/ItcAJNBTCo5mVUekWjwgnM/ehJYbyUVn0enuyD2U3VObIyzvmnvxQfhNv2gRMY2bQRpjAQjDtHHC3ftbr4x7V4GOQYY5GrMk8QGlkkHtktqCIqhfvbayeGDwoSwAINUtwhcEOBY6vh7ep4ElFRj7mr0nbVHLMdea4y1+xXVecIttF3hdTFzbOYSkfzghTjKAXZTcQeOlRMz21qVScfD5vA2El2tAEWmjMlA2EjSAM7U7b8cs91OQ/sc/nfSfPnLXtiZdtFUKwM3W7Nv/q57CDMyLWRIzpvdNkuyHZkmo0uVotNHLX+o2bs142hyQGG3R1sJ57dlwPaVs5EFOuBX7ugbSfvaTie2B3ffzgRTdsns2brcf9ysNmMjml9rLQp3xUCsV+LdZUi0gsEz+FiQ/f8vza/G7Kh480KR8+KLYXR+plV0jJ88D1ubaM+MFwpGNRD42Z5aV6Li/zx+t55ix5xekSmbx3V1u4H/T2OQeC8E9c7I0trDxLxmpD5Np2yYqC0+wDmboHzLvPR11A9v9SNnyyth0tXaifMYqP1L3abrwyQxZtXT0ML0yj42rrUwzhEGoeckFuphU1YVKiGiuR4+Mju7rnRdJ6QaT5m0KLNlkq2NML/bBSJi1OUbwkfDyYCxC2csiUD58+UD5ayTovifjMdy8G5SKRVvvR/vjV2QpduXOLX/UzRm1cqpdiDjAsS1bPkx6E/HNv0YaufysVuZXtZ7V4dW0r6YchID0xbS1XKqJG7jvXCnQYEvaxutzjMqzOrDIYuvHI3kM/IfuW736oDC8WP6pieNzmPDZL6XqpkKmWWplw2fRBJje0rmypbmZpkTEtT3OGNvwhccQy9MKHPw3d93a5KR9eIvRQPsQOHzxjKh9e2AaKxAfrQKZlutW+ZuT6GaNaedfVBHEZyiJDWmoGrX9ZC0PK6htz9MomvI6G5kgfCEhPTJsCwev7I5IMEPFpa4o8f2SInY88cLHD1n7CQaApAYRaU2IF18vyo15EmlrKtE7LdoEJs0Mi8MzKOq4VRO1TJBUnL3xnlNr9Elv50JVshcC1fAhFGYfeLs30Uku57FbRlmdNXrC5lifh1Od5OVUsOZcGgbYbLkWMyPsjDTrtWSmNRmo6iNPiFPK8WZMRApF9+vq+iAxzUuYg1Byzy9sSuiLSVEuRozmz4L7Emhl6MYu4oy+ulcCOzPa3L12E5cO8UGiVrC5dqZbdaq8unJ0JNnXI1VfpsVIT0O+7EDvfIBAPga4aprzVM+JB6WyJiDVp2JE6is3H9Vllk2adMLHaVcd2rglDAKHmyFXGSpsKq3VUajibT5Fm7PAh1qRFL4bVkZwZGygt/6V8tAw8wuRSLbtNUcrzZqTqTLYVp1l6ie5DObOfL70kIL1p8j60vp8tF6CR9A4XvuglVxen1JLw99qGt85H2wRrhovVrprmc1kAAgg1B6iuPQnSciL/uQ53rHJBFp2oOl/nnIiNOteFvCbFVibKR8gSkU7cKZZdW7o+9sqRynDbQ8xs/SXccAhIT6/04Fh5rETa7ub496zCqkBSeeeeOEpv99j4waNH6x2J9bkcq131qHJVCAIINQeqPnqafAipKheaLkpSFper6CiLt+7xFFuZKB91c7ff16VYdm1zRIYjqeGL1pUnSVdXhifZ521tIBwEghBQPb22i8mISJN7w9YuuScYEmxLrzjckJ7LxQQ4mgoBlud3ySlZotpuePQsVV9CahZhwRcRg65j6w9Fh7c5dAVmVh6SVqbkHqwJlQ+1/J/ToiCHk7Kj2MqhsiB1cDLJsuvASYZx7zy3Zd0LryvDnrYZcXCDoBCYEdBLwqtmbbU9Q6OP6R2Z7YGq5hrLCBXpNW7y0XM3e7pUfxMOi9fKe8d2q4Son8tq77hWelBVOiGm3SzmE7/dCCDUHPjJXIymD1yTnIRVwsOp5dnEteyviEHVI+aUlktr4DL76pxPTqQpp1IqH6pibS3U9D2wr3tAEGoFhTnFslvgRrNDlhVSk4jzPDcTkee/0rOhKs2eYyW62AnoJfmlUbZh1su+e6PJ+DHj3+7G+K7VbfupBF03mBo/ovmrhIZtHUzyJho/cobI++JwTuKssUsfW2isXhSaNr9HSuWquuFdXdfvcu7ztYAAQq0ASp1DMhTQFZ48tIs2sq6TftNrUr8RFx9CTf1v+/rUyod6Bzyo3g+zF0MTXlqQroyvbhJmSNemVnZ95I1rhVRskHsotueW7tlYmVyiGjZsG/Jr45X7Sub8xcagtgM9uVAvIqJy20oQqOGS+R4Lycvzz+5ZkZH01bNEntGdjWyxMjxgIOmdlBvRpjFM7mWZ49ZWHawJhiJ/Fo/5+K34NTGLazsi0LB9qCMre5isPHR5AdfP2MWHUv2QaV7ZevkYZd93IRVrD4iLT77CDq3sCjd5tllVbH1BDxiPVPACRk/UkRGYjOz3iiy6B0YjtwW+WhkSF1keFJlz/rk3fyPHbZ6v0ngm7yzqYEVkORYbAYSaZY7EuFGipStJBJMHa0of1/IhQ6za9Ndl9SypjBRVSNq0P+a0Uiu7sbB0vYdi8QM70iUgokiEgPXzbZodWXXZzEu3eS7I9hcuwjHdnLhgueSJ7tGWxV0azvUzseg8nY5fMr/5C4GYCbiO3ovZt+C2TZXMbTq5eGaU5Z4qs/AD+2LTatY1IpfyMdofv9qm/QdDct60rpDQo1aeWymW3XJvGpyRZ5zloiC6AhZ8cGEDX7h0mARk9dGV5q6LCJP73oiyIzGoe2M0yq5WlzT6HAiTyZaIldK4G8XY/sVGXMnQ5iapy/w8mbs1Hh1AM/E0icNcq+eajscPmN/8hUDMBBBqMecOts0ImBff7ABfvBNwefGJMTHOKfIOySJCym5zaDBrzowQAQhYNjRoS2Teb8lHlutXi4qcKTldeVgPvT3YviLZxZvWdiZnmjTuybtJiTQtfivh1DgpzxbVMylzB5PlV8NNLukRgYbtOT3yHFeSIjDYXomkcgljiwhQdouoVB+DWTUfzoYnIEvy26YiQxTzi4gsxmPmRolosPlMVibJL94k4qvuP2Hk65kgeeM6T9AmzwgDAVsCCDVbcoRrlYDtC61VIxNPzJWxqXwkjsG7+a5cvRuUQIQwSyCT+m6i5Sq4gqXO6ARXseAiJPuedWX+SS+e5E2qw0bL/OJ4vwkg1BzyV1pmrD8uQyqsE003oK/WtGQIJFY+6lRMkmHv2dDBlV3Dz6EMOz1bTfr8hYAlAZeVFfVCUAWLiCyaYsSCdaOEg5BctGUov7VIu3HTemmBoXDCz7gIINQs88NllTzLJAcdzPpl1iG1lCqbTSd2d4g1uaRTLLsxQOYZG0MuDNSGUXa/recyh8yIsGVxjPfHL9m8J0zjj4ugXGZbL8/XENC99BunkiaAUOsw+6gc14dvXkz1Q3R7pVQyXXuZ2iwfsqKWTYVhRplVTGcoFr+kVnYX7bf5LWW3yWIBRWkwlLaICsdCE3AuuxWLiCzaLouKLB5r9NtBUDZKpwcX766PT9QV0D1wFxd6RIBVHy0z82A58z3L0JnebHFtW7fafdI6kgEFlF6JlCq8B+XDbbn7NsuHGq5zymU7gZiKoqtA8O2L2LO3sfrguu+II45PhD+r60ecQZhWSmBta/KtqcPguN2N8V1yr9dpaHOtR4gTkg6NGsXZaeakZaonLRVG+REYKdV5inOAoz4IINQcKLr0mEhYdUOeUsm3ItTqvDSqUHT9kEvxgZVK+ZCysaL61m0Zx7gnjffKi8N8q6r7qq/n9H5HqkTZfKRyJY0GfCDQCQF1r0sjg61Wk6Xnzz/7ZlancnX+WfvGXsNGhKX6fo35zd8DAkakrSc2J02Vu63RdHxvW71/xygw0ROo8yyJ3onODJQhDo4TetvYuPL8c2/+ZlXtG2LL6VBw2L63bJOdC5daj5o2PpHyIS/6icWmriaDmszJMGGW/TWtirbice28bgRhn5xloAOc1/NmHJ8W48m4dA+qACY3ilIqgHz6SUBWUvSxX5dLI11Tsn1Yqr+pz2XX598bsqqmEmnJvQNUIwGrnZRl8ECPI9RcMn6UfV8Fl14x6890OpFJy8EeJlJpUg+sTcvGben1U6MGuq+Y2FbYrTPGR8AEyof0PK2pFmQXvubl6AOZiUMm2WeWvViHlSRv95UP4dF1j7Th2sbfyUg/05ySMsPHnCIJFFi1dr+0/t7Na1xHKdQxb0jlpg6P4Nc4NrwGt68gAemBEYFZtW9bQbBeHtLvMTXMsa3eqBAQXd7FIewhzu4JINQc8kAeBjvPbd0vFVWbm0uHUUN8pMfr2I0XvcXBlPKgarKxHpqmVqIqv6j6TAyt27aMqz0LezaF8iHDdMwQERsaElaV4yC9H7Z57r3HY5J9XolG60+brevWRnoKqIZ8TaVRyOZ5mDchBYGSgo15pnyvJmAaZFzLbnUq/s/qHpgDgdnKNAr/HviLUT/7x9l9KsZgjd/+rC2Oyfa9VxwbR/tAgJkArrmoVrtzWi1PpS9Dx0JsXikCUNyT+F3cjKGlLrWX54x3CuVDzZd0+Ujvh0v4wrDj7AHb+0oLo7FqZf7B1ouFcTc4KL0m09Hk6gZBjl46kBUx5Xkj7F3uVamkqOdVEOF/NGM4AoELBNR9LhX85D5yv0ljrBaaiVgvgqrqn60b+tmvpnmkxGLRV5fn52Jc/O4HAbcaWj8YOHnhvLyuSV21iPkUa1qkOcxLm5klQ9Ai+EgFLsVPzOXDVcBLfsiLMUTPguseWtLKLEMnXV/Yqzt7p13KnS63o+y7LnHEHlbErBpZoBbKc2sQMn4GEf4mcv5CoICAHsbq4X1ZEHUrh/S9l8hS/SLQ1Cq4J4r+HXvPRWok58Gq2LbgZCGiwykltlF0Gi7Vuk6n0HqeOELNMYOlkqpbcRzjkeCqVeyUVHhco5LhR/LgdrVLWulUY90Drvb4CJ9qK5PP8qHy4pSPXiLd8+GhUq3LR6ANRF3Fn2llllZy27lEprHD5T6SXsG+Cg8t0FSvpRk+6+U+Vw1Drnnvww7iGBYB2U4idY9FANk+67rwXe7zxX9ihwg4+WsrWExdwUddSuxo+2Psbztd0ouXAELNR954rqyK0LLpCZAeue3n3pz6WNpaHvoi9mKZlGv70PaRvc5x+CwfqpdI8ti2fOg5RJ5ajkOXDxFIUg5tP7qVWfm6ur13pgkvqewYTi4izZTZPgkPLc7Uc0b4rOzsnTErzrlwkvwVVvKftx5o20JDuEYE+lK2ZTsJ1zLcCFygiw+X6g8UezvRSplSz26n4c/m3dHkud+Od8tTMe+N5VdyxVAIjG6587ah+BrUT2m90eLGcb6PGJm/UfVCHmr1wCLBJJUmvQz5wWIHeh6NDxskfekJkJYtny9isVcqzbYvROnBGe2PXw2akSry6crkEt/7mHRRPoSTflHlyocvdjovAu/1IrbLEBbb8mJ8XbyfpIdrsVzP7iVZfOdQHLqma8qrrBBobAn117n1uGoeXW71TcNGGoN8tvy2ycr1OZQpVm3kaaiyko9X99Dn8jd/btl3/a5RK2Auu87HeZkn6vt9ZOyS54ysVOqzPJu42/4rz7qNGw+GD4ZM24WZlJs6eakby5QTts/hUPWYOlydnzGHK1dKPHXS83XN4nvRV7zE40aAVR/d+M1C766PT6xuT87Iw8H1gT8XXg13U5WYj6mK2NzqkvKw05knwlCtSGfStX2ozRxRX3T60yy6IUjSQ6JFlIdhe3l/F7/L2FM9UH7xhMPvtsuHKQ/iiGKmx9POlSsHXySoCGZVWQ26spZZNdPR1Ln7Ud1Lp9R9qoYYX+ipm7uXxDcPjS3aZtWbJz1E664OBA6vy8rKWDf0LEvKsPF9f+je2RYE7TL/OF+fwGFZqFVu6sdafKXzfIDiaPVRPZ/Jd4GuSC/0KRFRRQ27odP1Hb+IOWnYnb3LGiYg7zv1vM8kjiw7llQOS8OBEqr3t11B33l28mAMi8c1zOreX87QR09ZbLrrpSfK90cP4VKR5iva8pI0lSZJL3/OJX2ptMq/WFuMDQsXH5eF9cUyn07b5SPvgzDL/87bZfu9tfKhNg2X8ujrs3jfSLxFx3ykJ/Gm0ELpu2w0YTfLW5/Dg5sYwLVJEAjxXhXHRdTIfdrlPeA7A1JeSCPPwrwz88eafpe8VZmr95lrGrbL66U8mvdSW3/1lJmDvV+7dJ20Cwgg1Aqg2B7SLRHqoTCrfNhG1FE4abmSj7RkdWRCFMkaDr6NSb18zHi0WKlOeiGOFjnN8iaxL7oipcR4H3oAEkOPuUJAhoU7fORdH+KfrUmmgi8C1DaOmMLJO1NEukudSvXGbspIiraHEcbEEVvSJtB2z2ratGpYLxtXy9hqebDoSkiNMLFcctiq+GAKvQAhmYVsXU25fGjmUql+T9ghj/m8lbIowzHUsVP54zF/N/c+4qNGLh3M9xr8Rr01SHFJAAKyGI7L8z5Uo6YM17OdB6pEyZYa8n6fwhV0aHqA7CiMcshDIAuBBDroch8EMoloDwkg1AIUBXmwyJLVAaIOEqWpWKrWRcYnK8K2Y+LrZk6K5UN8U0MoOykf0qqqGj+0UIu98UPKjkyGkDmJsc9Nq1teQ1xnnjmtDaEN4QRxJk1A71tqOabIjLq46IbNsyEg7Pxg8lI2mVytRsA1/shQd7m/pAepD42uprFOesUawzgMYN4bsngOz5xiiqHrPcWpcrQOAYvHQJ1oh32NfjgmMuzJVJgQaRfKbOiWpZTKh6EiLzo9dNMcaPmvabk2FaSWk6+VnLFtNDq6qmStCAZwkTCS/7Tov3EzqQn+A8ieQbmol+R3mP46no7vCgXMxzYVfdgbzvD1MQRSnjuyeihDIA3V+b+h6z3zqfGrCQGEWhNaDa7Vw56UWDMVkwZBW7tUP7ikBNCTNsdcuIT+pFI+hEUMlWoRt2KH5Is0LsT4kbkUY7VhM0Mei3NHNwoJI1XB7VL0F1vH0SERMHO4TE9LE9/N+yHkfa4b85oYtXCt+CVCdOFw0j9dG+uMEDlYBTJpFEGMN+U6SORE6kQAoeaErzqwPMjb2NOk2oris1SairnIUfNAL7/Cz5kkysekm+GORYSlci/7CsrcjdheKqZnmmE1R3NO8srkl1S2QlZwj6bOEQgcJeCyMqLqBt6SBpmjsfo9Ij3zLjFKw5ERpC7xxBI231hna5MW5rIKpBoCaRtHX8O1Ve/pK7+QfiHUQtI9jFuLtaoNZVuwwSRhKkzym0qToTL/N89o/kyYX1GXDyWOwnhtF6sRa64rgdmlXh4qhl7Hcuu6OZPv+RSBfew9F41cewq68YRU+0RAhr5Jhd26Ynq4P2JoJj4aNGQ/rtB2thm/jyGQsgqk2nv26j6JWB950Ha9x4fNQ4kDodZSTuuW9g7nrUmlyfSiZUo0Umkqz3jrF3h5lEvPdF0+xMBUyoe8rM0wGLG7qxfMLF11X4tNYgufg/wQNnpfHjWsWhoi4EPJiIXA2tbkW7a2mHu+tQYHdf/kGzya2C1iVHr/+iZIzLPf5EUTJnKtvN8PV8bslYhtymHx+i7qPYs28LuYAEKtmEuQo9JCti4T6NXDN0gCFZHqh7Z6cOtetPduXlNx6eBP2b4AXMF1WT7EdikjqZQPqShJY4M0OpjetbbyTdKR//R8NHU/+2j5di07XYcXHvnGIJmHhkDrOldIv5CA6k0pPF7zoOuQxJrJ6Mtc95FUPf2b6tZ02iuuib1tXOtlCKRwUR+GQF7IMXmG84mTAEKtg3yR1uXQgu2gKnnwf6nMqiakuyTN1loCO+DqK8muW5YoH/VzUnoiRVyOpgdzRky5rx9DvStFhJj/RKDtr6u5VgNu8DA88q39MvxT8kIENOK1XrniqnYJ6CX5LZOU+18+bZZtLUpUA5rLR/aKcwkfY1h5R5oGOif7GAI5w9d1vWdmCF+OEGAftSNI2jtwOBzok3powijT3fC6VfrwuVz3xpmrLOUe6jIv5DCN9pyqkVLe3hqXd3KJqnS+r5OEc4kOtXzkENT6etj4oHuJ5V7Kz8swlSuJqO79VBRGbz6bu59i2yMt9D0lva3mI8OGlDB+dTTNHlAt/g/mG39i42JsLvprw0zKwWjk1iNTZEtXx2S5cjVnJ5NK7xA+ei8uS1/VMMLMNAi1ykqmTKj6gU15FTvFbu/7h02z96n7X4YQtooin5g0CumNwR1XAVbPNql7Bdkc3DbP8n62+T2Gek+b/qaS1uiWO29LxdZB2CkTnfX+J9PsAzLhddmNbipQuvK0P35V1UYfaLPFr2mmpLKHSb7y2dTHkNf3vXz4ZKcbQFSFQtUmPiCtykaold1T5l4SoaZXdRtl31W1nO/HfD8ZXqHvq1jvB+N/07+uvPrCw5VDU+4u1/tg7uqvDxtsGLjaLWn6tt3FJl+2uNiwmA++bDLx+rTNxBn6r28Goe0dSvwItQRyuuqG58ZKIAMDm0j5aAa4jBf3UjOOXA0BCEAAAhCAQFgCCLWwfIkdAhCAAAQgAAEIQAACEIBAYwIXJh40DkoACEAAAhCAAAQgAAEIQAACEAhBAKEWgipxQgACEIAABCAAAQhAAAIQcCCAUHOAR1AIQAACEIAABCAAAQhAAAIhCCDUQlAlTghAAAIQgAAEIAABCEAAAg4EEGoO8AgKAQhAAAIQgAAEIAABCEAgBAGEWgiqxAkB9Ca8uAAAAONJREFUCEAAAhCAAAQgAAEIQMCBAELNAR5BIQABCEAAAhCAAAQgAAEIhCCAUAtBlTghAAEIQAACEIAABCAAAQg4EECoOcAjKAQgAAEIQAACEIAABCAAgRAEEGohqBInBCAAAQhAAAIQgAAEIAABBwIINQd4BIUABCAAAQhAAAIQgAAEIBCCAEItBFXihAAEIAABCEAAAhCAAAQg4EAAoeYAj6AQgAAEIAABCEAAAhCAAARCEECohaBKnBCAAAQgAAEIQAACEIAABBwIINQc4BEUAhCAAAQgAAEIQAACEIBACAL/HzKWBEH2E/EIAAAAAElFTkSuQmCC;fontFamily=Architects Daughter;fontSource=https%3A%2F%2Ffonts.googleapis.com%2Fcss%3Ffamily%3DArchitects%2BDaughter;" parent="1" vertex="1">
          <mxGeometry x="350" y="359.13" width="100" height="29.86" as="geometry" />
        </mxCell>
        <mxCell id="cnEfcKHh1g_J3iN1mnnI-16" style="edgeStyle=orthogonalEdgeStyle;rounded=0;orthogonalLoop=1;jettySize=auto;html=1;exitX=1;exitY=0.5;exitDx=0;exitDy=0;entryX=0;entryY=0.5;entryDx=0;entryDy=0;sketch=1;curveFitting=1;jiggle=2;startArrow=classic;startFill=1;fontFamily=Architects Daughter;fontSource=https%3A%2F%2Ffonts.googleapis.com%2Fcss%3Ffamily%3DArchitects%2BDaughter;" parent="1" source="cnEfcKHh1g_J3iN1mnnI-8" target="cnEfcKHh1g_J3iN1mnnI-13" edge="1">
          <mxGeometry relative="1" as="geometry" />
        </mxCell>
        <mxCell id="cnEfcKHh1g_J3iN1mnnI-8" value="Cloudflare&#39;s network" style="rounded=1;whiteSpace=wrap;html=1;sketch=1;curveFitting=1;jiggle=2;fillColor=#ffe6cc;strokeColor=#d79b00;fontFamily=Architects Daughter;fontSource=https%3A%2F%2Ffonts.googleapis.com%2Fcss%3Ffamily%3DArchitects%2BDaughter;" parent="1" vertex="1">
          <mxGeometry x="300" y="240" width="130" height="40" as="geometry" />
        </mxCell>
        <mxCell id="cnEfcKHh1g_J3iN1mnnI-12" value="My-Server" style="text;html=1;align=center;verticalAlign=middle;resizable=0;points=[];autosize=1;strokeColor=none;fillColor=none;fontFamily=Architects Daughter;fontSource=https%3A%2F%2Ffonts.googleapis.com%2Fcss%3Ffamily%3DArchitects%2BDaughter;" parent="1" vertex="1">
          <mxGeometry x="670" y="363" width="80" height="30" as="geometry" />
        </mxCell>
        <mxCell id="cnEfcKHh1g_J3iN1mnnI-13" value="Cloudfared" style="rounded=1;whiteSpace=wrap;html=1;sketch=1;curveFitting=1;jiggle=2;fillColor=#ffe6cc;strokeColor=#d79b00;fontFamily=Architects Daughter;fontSource=https%3A%2F%2Ffonts.googleapis.com%2Fcss%3Ffamily%3DArchitects%2BDaughter;" parent="1" vertex="1">
          <mxGeometry x="590" y="240" width="130" height="40" as="geometry" />
        </mxCell>
        <mxCell id="cnEfcKHh1g_J3iN1mnnI-14" value="Home Assistant" style="rounded=1;whiteSpace=wrap;html=1;sketch=1;curveFitting=1;jiggle=2;fillColor=#dae8fc;strokeColor=#6c8ebf;fontFamily=Architects Daughter;fontSource=https%3A%2F%2Ffonts.googleapis.com%2Fcss%3Ffamily%3DArchitects%2BDaughter;" parent="1" vertex="1">
          <mxGeometry x="590" y="310" width="130" height="40" as="geometry" />
        </mxCell>
        <mxCell id="cnEfcKHh1g_J3iN1mnnI-17" value="secure tunnel" style="text;html=1;align=center;verticalAlign=middle;resizable=0;points=[];autosize=1;strokeColor=none;fillColor=none;fontFamily=Architects Daughter;fontSource=https%3A%2F%2Ffonts.googleapis.com%2Fcss%3Ffamily%3DArchitects%2BDaughter;fontColor=#FF9933;" parent="1" vertex="1">
          <mxGeometry x="460" y="230" width="100" height="30" as="geometry" />
        </mxCell>
        <mxCell id="cnEfcKHh1g_J3iN1mnnI-18" style="rounded=0;orthogonalLoop=1;jettySize=auto;html=1;exitX=0.5;exitY=1;exitDx=0;exitDy=0;entryX=0.5;entryY=0;entryDx=0;entryDy=0;sketch=1;curveFitting=1;jiggle=2;fontFamily=Architects Daughter;fontSource=https%3A%2F%2Ffonts.googleapis.com%2Fcss%3Ffamily%3DArchitects%2BDaughter;" parent="1" source="cnEfcKHh1g_J3iN1mnnI-13" target="cnEfcKHh1g_J3iN1mnnI-14" edge="1">
          <mxGeometry relative="1" as="geometry">
            <mxPoint x="205" y="270" as="sourcePoint" />
            <mxPoint x="310" y="270" as="targetPoint" />
          </mxGeometry>
        </mxCell>
        <mxCell id="cnEfcKHh1g_J3iN1mnnI-20" value="" style="rounded=1;whiteSpace=wrap;html=1;sketch=1;curveFitting=1;jiggle=2;dashed=1;dashPattern=12 12;strokeWidth=1;fillColor=default;fontFamily=Architects Daughter;fontSource=https%3A%2F%2Ffonts.googleapis.com%2Fcss%3Ffamily%3DArchitects%2BDaughter;" parent="1" vertex="1">
          <mxGeometry x="260" y="-30" width="495" height="130" as="geometry" />
        </mxCell>
        <mxCell id="cnEfcKHh1g_J3iN1mnnI-21" style="rounded=0;orthogonalLoop=1;jettySize=auto;html=1;exitX=0.92;exitY=0.5;exitDx=0;exitDy=0;exitPerimeter=0;entryX=0;entryY=0.5;entryDx=0;entryDy=0;sketch=1;curveFitting=1;jiggle=2;fontFamily=Architects Daughter;fontSource=https%3A%2F%2Ffonts.googleapis.com%2Fcss%3Ffamily%3DArchitects%2BDaughter;" parent="1" source="cnEfcKHh1g_J3iN1mnnI-22" target="cnEfcKHh1g_J3iN1mnnI-24" edge="1">
          <mxGeometry relative="1" as="geometry">
            <mxPoint x="300" y="25" as="targetPoint" />
          </mxGeometry>
        </mxCell>
        <mxCell id="cnEfcKHh1g_J3iN1mnnI-22" value="" style="sketch=0;aspect=fixed;pointerEvents=1;shadow=0;dashed=0;html=1;strokeColor=none;labelPosition=center;verticalLabelPosition=bottom;verticalAlign=top;align=center;fillColor=#00188D;shape=mxgraph.azure.laptop;fontFamily=Architects Daughter;fontSource=https%3A%2F%2Ffonts.googleapis.com%2Fcss%3Ffamily%3DArchitects%2BDaughter;" parent="1" vertex="1">
          <mxGeometry x="118.34" width="83.33" height="50" as="geometry" />
        </mxCell>
        <mxCell id="cnEfcKHh1g_J3iN1mnnI-28" style="edgeStyle=orthogonalEdgeStyle;rounded=0;sketch=1;hachureGap=4;jiggle=2;curveFitting=1;orthogonalLoop=1;jettySize=auto;html=1;entryX=0;entryY=0.5;entryDx=0;entryDy=0;fontFamily=Architects Daughter;fontSource=https%3A%2F%2Ffonts.googleapis.com%2Fcss%3Ffamily%3DArchitects%2BDaughter;" parent="1" source="cnEfcKHh1g_J3iN1mnnI-23" target="cnEfcKHh1g_J3iN1mnnI-27" edge="1">
          <mxGeometry relative="1" as="geometry" />
        </mxCell>
        <mxCell id="cnEfcKHh1g_J3iN1mnnI-23" value="nginx" style="rounded=1;whiteSpace=wrap;html=1;sketch=1;curveFitting=1;jiggle=2;fillColor=#dae8fc;strokeColor=#6c8ebf;fontFamily=Architects Daughter;fontSource=https%3A%2F%2Ffonts.googleapis.com%2Fcss%3Ffamily%3DArchitects%2BDaughter;" parent="1" vertex="1">
          <mxGeometry x="430" y="4" width="60" height="40" as="geometry" />
        </mxCell>
        <mxCell id="cnEfcKHh1g_J3iN1mnnI-26" style="edgeStyle=orthogonalEdgeStyle;rounded=0;sketch=1;hachureGap=4;jiggle=2;curveFitting=1;orthogonalLoop=1;jettySize=auto;html=1;entryX=0;entryY=0.5;entryDx=0;entryDy=0;fontFamily=Architects Daughter;fontSource=https%3A%2F%2Ffonts.googleapis.com%2Fcss%3Ffamily%3DArchitects%2BDaughter;" parent="1" source="cnEfcKHh1g_J3iN1mnnI-24" target="cnEfcKHh1g_J3iN1mnnI-23" edge="1">
          <mxGeometry relative="1" as="geometry" />
        </mxCell>
        <mxCell id="cnEfcKHh1g_J3iN1mnnI-24" value="router&lt;div&gt;(freebox)&lt;/div&gt;" style="rounded=1;whiteSpace=wrap;html=1;sketch=1;curveFitting=1;jiggle=2;fillColor=#dae8fc;strokeColor=#6c8ebf;fontFamily=Architects Daughter;fontSource=https%3A%2F%2Ffonts.googleapis.com%2Fcss%3Ffamily%3DArchitects%2BDaughter;" parent="1" vertex="1">
          <mxGeometry x="310" y="4" width="60" height="40" as="geometry" />
        </mxCell>
        <mxCell id="cnEfcKHh1g_J3iN1mnnI-27" value="Home Assistant" style="rounded=1;whiteSpace=wrap;html=1;sketch=1;curveFitting=1;jiggle=2;fillColor=#dae8fc;strokeColor=#6c8ebf;fontFamily=Architects Daughter;fontSource=https%3A%2F%2Ffonts.googleapis.com%2Fcss%3Ffamily%3DArchitects%2BDaughter;" parent="1" vertex="1">
          <mxGeometry x="570" y="4" width="130" height="40" as="geometry" />
        </mxCell>
        <mxCell id="cnEfcKHh1g_J3iN1mnnI-29" value="port forwrding" style="text;html=1;align=center;verticalAlign=middle;resizable=0;points=[];autosize=1;strokeColor=none;fillColor=none;fontFamily=Architects Daughter;fontSource=https%3A%2F%2Ffonts.googleapis.com%2Fcss%3Ffamily%3DArchitects%2BDaughter;" parent="1" vertex="1">
          <mxGeometry x="285" y="44" width="110" height="30" as="geometry" />
        </mxCell>
        <mxCell id="cnEfcKHh1g_J3iN1mnnI-30" value="My-Server" style="text;html=1;align=center;verticalAlign=middle;resizable=0;points=[];autosize=1;strokeColor=none;fillColor=none;fontFamily=Architects Daughter;fontSource=https%3A%2F%2Ffonts.googleapis.com%2Fcss%3Ffamily%3DArchitects%2BDaughter;" parent="1" vertex="1">
          <mxGeometry x="670" y="70" width="80" height="30" as="geometry" />
        </mxCell>
        <mxCell id="cnEfcKHh1g_J3iN1mnnI-31" value="" style="rounded=1;whiteSpace=wrap;html=1;sketch=1;curveFitting=1;jiggle=2;dashed=1;dashPattern=12 12;strokeWidth=1;fillColor=default;shadow=0;fontFamily=Architects Daughter;fontSource=https%3A%2F%2Ffonts.googleapis.com%2Fcss%3Ffamily%3DArchitects%2BDaughter;" parent="1" vertex="1">
          <mxGeometry x="118.34" y="480" width="181.66" height="110" as="geometry" />
        </mxCell>
        <mxCell id="cnEfcKHh1g_J3iN1mnnI-32" value="" style="sketch=0;aspect=fixed;pointerEvents=1;shadow=0;dashed=0;html=1;strokeColor=none;labelPosition=center;verticalLabelPosition=bottom;verticalAlign=top;align=center;fillColor=#00188D;shape=mxgraph.azure.laptop;fontFamily=Architects Daughter;fontSource=https%3A%2F%2Ffonts.googleapis.com%2Fcss%3Ffamily%3DArchitects%2BDaughter;" parent="1" vertex="1">
          <mxGeometry x="123" y="503" width="83.33" height="50" as="geometry" />
        </mxCell>
        <mxCell id="cnEfcKHh1g_J3iN1mnnI-33" value="" style="rounded=1;whiteSpace=wrap;html=1;sketch=1;curveFitting=1;jiggle=2;dashed=1;dashPattern=12 12;strokeWidth=1;fillColor=default;fontFamily=Architects Daughter;fontSource=https%3A%2F%2Ffonts.googleapis.com%2Fcss%3Ffamily%3DArchitects%2BDaughter;" parent="1" vertex="1">
          <mxGeometry x="395" y="455" width="365" height="190" as="geometry" />
        </mxCell>
        <mxCell id="cnEfcKHh1g_J3iN1mnnI-34" value="My-Server" style="text;html=1;align=center;verticalAlign=middle;resizable=0;points=[];autosize=1;strokeColor=none;fillColor=none;fontFamily=Architects Daughter;fontSource=https%3A%2F%2Ffonts.googleapis.com%2Fcss%3Ffamily%3DArchitects%2BDaughter;" parent="1" vertex="1">
          <mxGeometry x="667.5" y="615" width="80" height="30" as="geometry" />
        </mxCell>
        <mxCell id="cnEfcKHh1g_J3iN1mnnI-41" style="rounded=0;sketch=1;hachureGap=4;jiggle=2;curveFitting=1;orthogonalLoop=1;jettySize=auto;html=1;exitX=1;exitY=0.5;exitDx=0;exitDy=0;entryX=0;entryY=0.5;entryDx=0;entryDy=0;fontFamily=Architects Daughter;fontSource=https%3A%2F%2Ffonts.googleapis.com%2Fcss%3Ffamily%3DArchitects%2BDaughter;" parent="1" source="cnEfcKHh1g_J3iN1mnnI-35" target="cnEfcKHh1g_J3iN1mnnI-39" edge="1">
          <mxGeometry relative="1" as="geometry" />
        </mxCell>
        <mxCell id="cnEfcKHh1g_J3iN1mnnI-42" style="rounded=0;sketch=1;hachureGap=4;jiggle=2;curveFitting=1;orthogonalLoop=1;jettySize=auto;html=1;entryX=0;entryY=0.5;entryDx=0;entryDy=0;fontFamily=Architects Daughter;fontSource=https%3A%2F%2Ffonts.googleapis.com%2Fcss%3Ffamily%3DArchitects%2BDaughter;" parent="1" source="cnEfcKHh1g_J3iN1mnnI-35" target="cnEfcKHh1g_J3iN1mnnI-40" edge="1">
          <mxGeometry relative="1" as="geometry" />
        </mxCell>
        <mxCell id="cnEfcKHh1g_J3iN1mnnI-35" value="VPN Server" style="rounded=1;whiteSpace=wrap;html=1;sketch=1;curveFitting=1;jiggle=2;fillColor=#dae8fc;strokeColor=#6c8ebf;fontFamily=Architects Daughter;fontSource=https%3A%2F%2Ffonts.googleapis.com%2Fcss%3Ffamily%3DArchitects%2BDaughter;" parent="1" vertex="1">
          <mxGeometry x="407.5" y="508" width="100" height="40" as="geometry" />
        </mxCell>
        <mxCell id="cnEfcKHh1g_J3iN1mnnI-37" style="edgeStyle=orthogonalEdgeStyle;rounded=0;sketch=1;hachureGap=4;jiggle=2;curveFitting=1;orthogonalLoop=1;jettySize=auto;html=1;entryX=0;entryY=0.5;entryDx=0;entryDy=0;fontFamily=Architects Daughter;fontSource=https%3A%2F%2Ffonts.googleapis.com%2Fcss%3Ffamily%3DArchitects%2BDaughter;" parent="1" source="cnEfcKHh1g_J3iN1mnnI-36" target="cnEfcKHh1g_J3iN1mnnI-35" edge="1">
          <mxGeometry relative="1" as="geometry" />
        </mxCell>
        <mxCell id="cnEfcKHh1g_J3iN1mnnI-36" value="VPN Client" style="rounded=1;whiteSpace=wrap;html=1;sketch=1;curveFitting=1;jiggle=2;fillColor=#dae8fc;strokeColor=#6c8ebf;fontFamily=Architects Daughter;fontSource=https%3A%2F%2Ffonts.googleapis.com%2Fcss%3Ffamily%3DArchitects%2BDaughter;" parent="1" vertex="1">
          <mxGeometry x="218" y="508" width="65" height="40" as="geometry" />
        </mxCell>
        <mxCell id="cnEfcKHh1g_J3iN1mnnI-38" value="tunnel VPN" style="text;html=1;align=center;verticalAlign=middle;resizable=0;points=[];autosize=1;strokeColor=none;fillColor=none;fontFamily=Architects Daughter;fontSource=https%3A%2F%2Ffonts.googleapis.com%2Fcss%3Ffamily%3DArchitects%2BDaughter;fontColor=#0000FF;" parent="1" vertex="1">
          <mxGeometry x="300" y="500" width="80" height="30" as="geometry" />
        </mxCell>
        <mxCell id="cnEfcKHh1g_J3iN1mnnI-39" value="Home Assistant" style="rounded=1;whiteSpace=wrap;html=1;sketch=1;curveFitting=1;jiggle=2;fillColor=#dae8fc;strokeColor=#6c8ebf;fontFamily=Architects Daughter;fontSource=https%3A%2F%2Ffonts.googleapis.com%2Fcss%3Ffamily%3DArchitects%2BDaughter;" parent="1" vertex="1">
          <mxGeometry x="607.5" y="478" width="130" height="40" as="geometry" />
        </mxCell>
        <mxCell id="cnEfcKHh1g_J3iN1mnnI-40" value="Synology NAS" style="rounded=1;whiteSpace=wrap;html=1;sketch=1;curveFitting=1;jiggle=2;fillColor=#dae8fc;strokeColor=#6c8ebf;fontFamily=Architects Daughter;fontSource=https%3A%2F%2Ffonts.googleapis.com%2Fcss%3Ffamily%3DArchitects%2BDaughter;" parent="1" vertex="1">
          <mxGeometry x="617.5" y="568" width="130" height="40" as="geometry" />
        </mxCell>
        <mxCell id="cnEfcKHh1g_J3iN1mnnI-46" value="" style="verticalLabelPosition=bottom;verticalAlign=top;html=1;shape=mxgraph.basic.no_symbol;hachureGap=4;fontFamily=Architects Daughter;fontSource=https%3A%2F%2Ffonts.googleapis.com%2Fcss%3Ffamily%3DArchitects%2BDaughter;fillColor=#FF0000;strokeColor=#ff0000;" parent="1" vertex="1">
          <mxGeometry x="550.66" y="954" width="24" height="20" as="geometry" />
        </mxCell>
        <mxCell id="cnEfcKHh1g_J3iN1mnnI-47" value="" style="verticalLabelPosition=bottom;verticalAlign=top;html=1;shape=mxgraph.basic.tick;hachureGap=4;fontFamily=Architects Daughter;fontSource=https%3A%2F%2Ffonts.googleapis.com%2Fcss%3Ffamily%3DArchitects%2BDaughter;fillColor=#00ff11;strokeColor=#37ff00;" parent="1" vertex="1">
          <mxGeometry x="545" y="488" width="25" height="20" as="geometry" />
        </mxCell>
        <mxCell id="cnEfcKHh1g_J3iN1mnnI-49" value="" style="verticalLabelPosition=bottom;verticalAlign=top;html=1;shape=mxgraph.basic.tick;hachureGap=4;fontFamily=Architects Daughter;fontSource=https%3A%2F%2Ffonts.googleapis.com%2Fcss%3Ffamily%3DArchitects%2BDaughter;fillColor=#00ff11;strokeColor=#37ff00;" parent="1" vertex="1">
          <mxGeometry x="545" y="574" width="25" height="20" as="geometry" />
        </mxCell>
        <mxCell id="cnEfcKHh1g_J3iN1mnnI-50" value="" style="rounded=1;whiteSpace=wrap;html=1;sketch=1;curveFitting=1;jiggle=2;dashed=1;dashPattern=12 12;strokeWidth=1;fillColor=default;shadow=0;fontFamily=Architects Daughter;fontSource=https%3A%2F%2Ffonts.googleapis.com%2Fcss%3Ffamily%3DArchitects%2BDaughter;" parent="1" vertex="1">
          <mxGeometry x="123" y="856" width="181.66" height="100" as="geometry" />
        </mxCell>
        <mxCell id="cnEfcKHh1g_J3iN1mnnI-51" value="" style="sketch=0;aspect=fixed;pointerEvents=1;shadow=0;dashed=0;html=1;strokeColor=none;labelPosition=center;verticalLabelPosition=bottom;verticalAlign=top;align=center;fillColor=#00188D;shape=mxgraph.azure.laptop;fontFamily=Architects Daughter;fontSource=https%3A%2F%2Ffonts.googleapis.com%2Fcss%3Ffamily%3DArchitects%2BDaughter;" parent="1" vertex="1">
          <mxGeometry x="127.66" y="879" width="83.33" height="50" as="geometry" />
        </mxCell>
        <mxCell id="cnEfcKHh1g_J3iN1mnnI-53" value="My-Server" style="text;html=1;align=center;verticalAlign=middle;resizable=0;points=[];autosize=1;strokeColor=none;fillColor=none;fontFamily=Architects Daughter;fontSource=https%3A%2F%2Ffonts.googleapis.com%2Fcss%3Ffamily%3DArchitects%2BDaughter;" parent="1" vertex="1">
          <mxGeometry x="672.16" y="991" width="80" height="30" as="geometry" />
        </mxCell>
        <mxCell id="cnEfcKHh1g_J3iN1mnnI-54" style="rounded=0;sketch=1;hachureGap=4;jiggle=2;curveFitting=1;orthogonalLoop=1;jettySize=auto;html=1;exitX=1;exitY=0.5;exitDx=0;exitDy=0;entryX=0;entryY=0.5;entryDx=0;entryDy=0;fontFamily=Architects Daughter;fontSource=https%3A%2F%2Ffonts.googleapis.com%2Fcss%3Ffamily%3DArchitects%2BDaughter;" parent="1" source="cnEfcKHh1g_J3iN1mnnI-56" target="cnEfcKHh1g_J3iN1mnnI-60" edge="1">
          <mxGeometry relative="1" as="geometry" />
        </mxCell>
        <mxCell id="cnEfcKHh1g_J3iN1mnnI-55" style="rounded=0;sketch=1;hachureGap=4;jiggle=2;curveFitting=1;orthogonalLoop=1;jettySize=auto;html=1;entryX=0;entryY=0.5;entryDx=0;entryDy=0;fontFamily=Architects Daughter;fontSource=https%3A%2F%2Ffonts.googleapis.com%2Fcss%3Ffamily%3DArchitects%2BDaughter;" parent="1" source="cnEfcKHh1g_J3iN1mnnI-56" target="cnEfcKHh1g_J3iN1mnnI-61" edge="1">
          <mxGeometry relative="1" as="geometry" />
        </mxCell>
        <mxCell id="cnEfcKHh1g_J3iN1mnnI-56" value="ZTNA client" style="rounded=1;whiteSpace=wrap;html=1;sketch=1;curveFitting=1;jiggle=2;fillColor=#dae8fc;strokeColor=#6c8ebf;fontFamily=Architects Daughter;fontSource=https%3A%2F%2Ffonts.googleapis.com%2Fcss%3Ffamily%3DArchitects%2BDaughter;" parent="1" vertex="1">
          <mxGeometry x="440" y="884" width="57.84" height="40" as="geometry" />
        </mxCell>
        <mxCell id="cnEfcKHh1g_J3iN1mnnI-57" style="edgeStyle=orthogonalEdgeStyle;rounded=0;sketch=1;hachureGap=4;jiggle=2;curveFitting=1;orthogonalLoop=1;jettySize=auto;html=1;entryX=0;entryY=0.5;entryDx=0;entryDy=0;fontFamily=Architects Daughter;fontSource=https%3A%2F%2Ffonts.googleapis.com%2Fcss%3Ffamily%3DArchitects%2BDaughter;" parent="1" source="cnEfcKHh1g_J3iN1mnnI-58" target="cnEfcKHh1g_J3iN1mnnI-56" edge="1">
          <mxGeometry relative="1" as="geometry" />
        </mxCell>
        <mxCell id="cnEfcKHh1g_J3iN1mnnI-58" value="ZTNA client" style="rounded=1;whiteSpace=wrap;html=1;sketch=1;curveFitting=1;jiggle=2;fillColor=#dae8fc;strokeColor=#6c8ebf;fontFamily=Architects Daughter;fontSource=https%3A%2F%2Ffonts.googleapis.com%2Fcss%3Ffamily%3DArchitects%2BDaughter;" parent="1" vertex="1">
          <mxGeometry x="222.66" y="884" width="65" height="40" as="geometry" />
        </mxCell>
        <mxCell id="cnEfcKHh1g_J3iN1mnnI-59" value="tunnel VPN" style="text;html=1;align=center;verticalAlign=middle;resizable=0;points=[];autosize=1;strokeColor=none;fillColor=none;fontFamily=Architects Daughter;fontSource=https%3A%2F%2Ffonts.googleapis.com%2Fcss%3Ffamily%3DArchitects%2BDaughter;fontColor=#0000FF;" parent="1" vertex="1">
          <mxGeometry x="304.66" y="876" width="80" height="30" as="geometry" />
        </mxCell>
        <mxCell id="cnEfcKHh1g_J3iN1mnnI-60" value="Home Assistant" style="rounded=1;whiteSpace=wrap;html=1;sketch=1;curveFitting=1;jiggle=2;fillColor=#dae8fc;strokeColor=#6c8ebf;fontFamily=Architects Daughter;fontSource=https%3A%2F%2Ffonts.googleapis.com%2Fcss%3Ffamily%3DArchitects%2BDaughter;" parent="1" vertex="1">
          <mxGeometry x="612.16" y="854" width="130" height="40" as="geometry" />
        </mxCell>
        <mxCell id="cnEfcKHh1g_J3iN1mnnI-61" value="Synology NAS" style="rounded=1;whiteSpace=wrap;html=1;sketch=1;curveFitting=1;jiggle=2;fillColor=#dae8fc;strokeColor=#6c8ebf;fontFamily=Architects Daughter;fontSource=https%3A%2F%2Ffonts.googleapis.com%2Fcss%3Ffamily%3DArchitects%2BDaughter;" parent="1" vertex="1">
          <mxGeometry x="622.16" y="944" width="130" height="40" as="geometry" />
        </mxCell>
        <mxCell id="cnEfcKHh1g_J3iN1mnnI-62" value="" style="verticalLabelPosition=bottom;verticalAlign=top;html=1;shape=mxgraph.basic.tick;hachureGap=4;fontFamily=Architects Daughter;fontSource=https%3A%2F%2Ffonts.googleapis.com%2Fcss%3Ffamily%3DArchitects%2BDaughter;fillColor=#00ff11;strokeColor=#37ff00;" parent="1" vertex="1">
          <mxGeometry x="549.66" y="864" width="25" height="20" as="geometry" />
        </mxCell>
        <mxCell id="cnEfcKHh1g_J3iN1mnnI-64" value="&lt;h2 class=&quot;section-heading&quot; style=&quot;forced-color-adjust: none; color: rgb(0, 0, 0); font-family: &amp;quot;Architects Daughter&amp;quot;; font-style: normal; font-variant-ligatures: normal; font-variant-caps: normal; letter-spacing: normal; orphans: 2; text-align: center; text-indent: 0px; text-transform: none; widows: 2; word-spacing: 0px; -webkit-text-stroke-width: 0px; white-space: normal; background-color: rgb(251, 251, 251); text-decoration-thickness: initial; text-decoration-style: initial; text-decoration-color: initial; margin-top: 0px; margin-bottom: 0px;&quot;&gt;&lt;font style=&quot;forced-color-adjust: none; font-size: 12px;&quot;&gt;(Zero Trust Network Access&lt;/font&gt;&lt;/h2&gt;" style="text;whiteSpace=wrap;html=1;fontFamily=Architects Daughter;fontSource=https%3A%2F%2Ffonts.googleapis.com%2Fcss%3Ffamily%3DArchitects%2BDaughter;" parent="1" vertex="1">
          <mxGeometry x="407.5" y="930" width="100" height="44" as="geometry" />
        </mxCell>
        <mxCell id="cnEfcKHh1g_J3iN1mnnI-66" value="openVPN&lt;div&gt;Client&lt;/div&gt;" style="text;html=1;align=center;verticalAlign=middle;resizable=0;points=[];autosize=1;strokeColor=none;fillColor=none;fontFamily=Architects Daughter;fontSource=https%3A%2F%2Ffonts.googleapis.com%2Fcss%3Ffamily%3DArchitects%2BDaughter;fontColor=#FF9933;" parent="1" vertex="1">
          <mxGeometry x="215.5" y="553" width="70" height="40" as="geometry" />
        </mxCell>
        <mxCell id="cnEfcKHh1g_J3iN1mnnI-68" value="openVPN&lt;div&gt;Access server&lt;/div&gt;" style="text;html=1;align=center;verticalAlign=middle;resizable=0;points=[];autosize=1;strokeColor=none;fillColor=none;fontFamily=Architects Daughter;fontSource=https%3A%2F%2Ffonts.googleapis.com%2Fcss%3Ffamily%3DArchitects%2BDaughter;fontColor=#FF9933;" parent="1" vertex="1">
          <mxGeometry x="399.65999999999997" y="548" width="110" height="40" as="geometry" />
        </mxCell>
        <mxCell id="cnEfcKHh1g_J3iN1mnnI-74" style="rounded=0;sketch=1;hachureGap=4;jiggle=2;curveFitting=1;orthogonalLoop=1;jettySize=auto;html=1;exitX=0.5;exitY=1;exitDx=0;exitDy=0;entryX=0.5;entryY=0;entryDx=0;entryDy=0;fontFamily=Architects Daughter;fontSource=https%3A%2F%2Ffonts.googleapis.com%2Fcss%3Ffamily%3DArchitects%2BDaughter;dashed=1;dashPattern=12 12;fillColor=#f8cecc;strokeColor=#b85450;" parent="1" source="cnEfcKHh1g_J3iN1mnnI-71" target="cnEfcKHh1g_J3iN1mnnI-58" edge="1">
          <mxGeometry relative="1" as="geometry" />
        </mxCell>
        <mxCell id="cnEfcKHh1g_J3iN1mnnI-71" value="&lt;h2 class=&quot;section-heading&quot;&gt;&lt;font style=&quot;font-size: 12px;&quot;&gt;Serveur de contrôle&lt;/font&gt;&lt;/h2&gt;" style="rounded=1;whiteSpace=wrap;html=1;sketch=1;curveFitting=1;jiggle=2;fillColor=#dae8fc;strokeColor=#6c8ebf;fontFamily=Architects Daughter;fontSource=https%3A%2F%2Ffonts.googleapis.com%2Fcss%3Ffamily%3DArchitects%2BDaughter;arcSize=50;" parent="1" vertex="1">
          <mxGeometry x="270" y="731" width="100" height="40" as="geometry" />
        </mxCell>
        <mxCell id="cnEfcKHh1g_J3iN1mnnI-73" value="Zerotier.com&amp;nbsp;" style="text;html=1;align=center;verticalAlign=middle;resizable=0;points=[];autosize=1;strokeColor=none;fillColor=none;fontFamily=Architects Daughter;fontSource=https%3A%2F%2Ffonts.googleapis.com%2Fcss%3Ffamily%3DArchitects%2BDaughter;" parent="1" vertex="1">
          <mxGeometry x="384.65999999999997" y="761" width="100" height="30" as="geometry" />
        </mxCell>
        <mxCell id="cnEfcKHh1g_J3iN1mnnI-75" style="rounded=0;sketch=1;hachureGap=4;jiggle=2;curveFitting=1;orthogonalLoop=1;jettySize=auto;html=1;exitX=0.75;exitY=1;exitDx=0;exitDy=0;entryX=0.5;entryY=0;entryDx=0;entryDy=0;fontFamily=Architects Daughter;fontSource=https%3A%2F%2Ffonts.googleapis.com%2Fcss%3Ffamily%3DArchitects%2BDaughter;dashed=1;dashPattern=12 12;fillColor=#f8cecc;strokeColor=#b85450;" parent="1" source="cnEfcKHh1g_J3iN1mnnI-71" target="cnEfcKHh1g_J3iN1mnnI-56" edge="1">
          <mxGeometry relative="1" as="geometry">
            <mxPoint x="330" y="790" as="sourcePoint" />
            <mxPoint x="265" y="894" as="targetPoint" />
          </mxGeometry>
        </mxCell>
        <mxCell id="cnEfcKHh1g_J3iN1mnnI-76" value="&lt;strong&gt;Initialisation de la Connexion&lt;/strong&gt;" style="text;whiteSpace=wrap;html=1;fontFamily=Architects Daughter;fontSource=https%3A%2F%2Ffonts.googleapis.com%2Fcss%3Ffamily%3DArchitects%2BDaughter;fontColor=#FF0011;labelBackgroundColor=default;" parent="1" vertex="1">
          <mxGeometry x="260" y="800" width="180" height="20" as="geometry" />
        </mxCell>
      </root>
    </mxGraphModel>
  </diagram>
</mxfile>
